<svg width="12.385788" height="12.593018" viewBox="0 0 12.3858 12.593" fill="none" xmlns="http://www.w3.org/2000/svg" xmlns:xlink="http://www.w3.org/1999/xlink">
	<desc>
			Created with Pixso.
	</desc>
	<defs/>
	<path id="Vector" d="M6.54 12.44L12.23 6.75C12.43 6.55 12.43 6.24 12.23 6.04L11.82 5.63C11.63 5.43 11.31 5.43 11.11 5.63L7.84 8.9C7.53 9.22 6.99 8.99 6.99 8.55L6.99 0.5C6.99 0.22 6.76 0 6.49 0L5.89 0C5.61 0 5.39 0.22 5.39 0.5L5.39 8.55C5.39 8.99 4.85 9.22 4.53 8.9L1.26 5.63C1.07 5.43 0.75 5.43 0.55 5.63L0.14 6.04C-0.05 6.24 -0.05 6.55 0.14 6.75L5.83 12.44C6.03 12.64 6.35 12.64 6.54 12.44Z" fill="#FFFFFF" fill-opacity="1.000000" fill-rule="nonzero"/>
</svg>
