<svg width="20.000000" height="20.000000" viewBox="0 0 20 20" fill="none" xmlns="http://www.w3.org/2000/svg" xmlns:xlink="http://www.w3.org/1999/xlink">
	<desc>
			Created with Pixso.
	</desc>
	<defs/>
	<g opacity="0.700000">
		<rect id="codicon:info" rx="0.000000" width="19.000000" height="19.000000" transform="translate(0.500000 0.500000)" fill="#FFFFFF" fill-opacity="0"/>
		<path id="Vector" d="M10.71 1.28C12.69 1.48 14.55 2.38 15.95 3.81C17.47 5.35 18.36 7.4 18.47 9.57C18.58 11.73 17.88 13.86 16.52 15.55C15.27 17.1 13.51 18.17 11.55 18.57C9.59 18.97 7.56 18.67 5.79 17.72C4.03 16.75 2.65 15.21 1.89 13.35C1.13 11.47 1.03 9.4 1.61 7.46C2.18 5.53 3.4 3.85 5.07 2.72C6.72 1.59 8.72 1.09 10.71 1.28ZM11.3 17.35C12.97 17 14.48 16.09 15.56 14.76C16.72 13.31 17.32 11.48 17.22 9.62C17.13 7.77 16.36 6.01 15.06 4.68C13.86 3.46 12.28 2.7 10.58 2.54C8.88 2.37 7.18 2.8 5.77 3.76C4.71 4.49 3.85 5.48 3.28 6.64C2.71 7.79 2.44 9.08 2.5 10.36C2.56 11.65 2.95 12.9 3.64 14C4.32 15.09 5.27 16 6.39 16.62C7.89 17.43 9.63 17.69 11.3 17.35ZM9.21 7.5L10.78 7.5L10.78 6.25L9.21 6.25L9.21 7.5ZM10.78 8.75L10.78 13.75L9.21 13.75L9.21 8.75L10.78 8.75Z" fill="#FFFFFF" fill-opacity="1.000000" fill-rule="evenodd"/>
	</g>
</svg>
