<svg width="18.000000" height="18.000000" viewBox="0 0 18 18" fill="none" xmlns="http://www.w3.org/2000/svg" xmlns:xlink="http://www.w3.org/1999/xlink">
	<desc>
			Created with Pixso.
	</desc>
	<defs>
		<clipPath id="clip158_1457">
			<rect id="iconoir:language" rx="0.000000" width="17.000000" height="17.000000" transform="translate(0.500000 0.500000)" fill="white" fill-opacity="0"/>
		</clipPath>
	</defs>
	<g opacity="0.700000">
		<rect id="iconoir:language" rx="0.000000" width="17.000000" height="17.000000" transform="translate(0.500000 0.500000)" fill="#FFFFFF" fill-opacity="0"/>
		<g clip-path="url(#clip158_1457)">
			<path id="Vector" d="M9 16.5C13.14 16.5 16.5 13.14 16.5 9C16.5 4.85 13.14 1.5 9 1.5C4.85 1.5 1.5 4.85 1.5 9C1.5 13.14 4.85 16.5 9 16.5Z" stroke="#FFFFFF" stroke-opacity="1.000000" stroke-width="1.125000" stroke-linejoin="round"/>
			<path id="Vector" d="M9.74 1.53C9.74 1.53 11.99 4.5 11.99 9C11.99 13.5 9.74 16.46 9.74 16.46M8.24 16.46C8.24 16.46 5.99 13.5 5.99 9C5.99 4.5 8.24 1.53 8.24 1.53M1.97 11.62L16.02 11.62M1.97 6.37L16.02 6.37" stroke="#FFFFFF" stroke-opacity="1.000000" stroke-width="1.125000" stroke-linejoin="round" stroke-linecap="round"/>
		</g>
	</g>
</svg>
