<svg width="32.043457" height="32.000000" viewBox="0 0 32.0435 32" fill="none" xmlns="http://www.w3.org/2000/svg" xmlns:xlink="http://www.w3.org/1999/xlink">
	<desc>
			Created with Pixso.
	</desc>
	<defs>
		<linearGradient x1="8.010860" y1="0.000000" x2="8.010860" y2="31.999563" id="paint_linear_122_571_0" gradientUnits="userSpaceOnUse">
			<stop stop-color="#1ABCFE"/>
			<stop offset="1.000000" stop-color="#1ABCFE" stop-opacity="0.000000"/>
		</linearGradient>
		<linearGradient x1="16.021818" y1="10.666992" x2="16.021818" y2="21.333450" id="paint_linear_122_572_0" gradientUnits="userSpaceOnUse">
			<stop stop-color="#1ABCFE"/>
			<stop offset="1.000000" stop-color="#1ABCFE" stop-opacity="0.000000"/>
		</linearGradient>
		<linearGradient x1="16.021723" y1="16.000000" x2="16.021723" y2="31.999783" id="paint_linear_122_573_0" gradientUnits="userSpaceOnUse">
			<stop stop-color="#1ABCFE"/>
			<stop offset="1.000000" stop-color="#1ABCFE" stop-opacity="0.000000"/>
		</linearGradient>
	</defs>
	<path id="Vector" d="M16.02 0C13.91 0 11.83 0.41 9.89 1.21C7.94 2.02 6.18 3.2 4.69 4.68C3.2 6.17 2.02 7.93 1.21 9.87C0.41 11.81 0 13.89 0 16C0 18.1 0.41 20.18 1.21 22.12C2.02 24.06 3.2 25.82 4.69 27.31C6.18 28.79 7.94 29.97 9.89 30.78C11.83 31.58 13.91 32 16.02 32L16.02 24C14.96 24 13.92 23.79 12.95 23.39C11.98 22.98 11.1 22.39 10.35 21.65C9.61 20.91 9.02 20.03 8.62 19.06C8.21 18.09 8.01 17.05 8.01 16C8.01 14.94 8.21 13.9 8.62 12.93C9.02 11.96 9.61 11.08 10.35 10.34C11.1 9.6 11.98 9.01 12.95 8.6C13.92 8.2 14.96 8 16.02 8L16.02 0Z" fill="url(#paint_linear_122_571_0)" fill-opacity="1.000000" fill-rule="nonzero"/>
	<path id="Vector" d="M16.02 21.33C18.97 21.33 21.36 18.94 21.36 16C21.36 13.05 18.97 10.66 16.02 10.66C13.07 10.66 10.68 13.05 10.68 16C10.68 18.94 13.07 21.33 16.02 21.33Z" fill="url(#paint_linear_122_572_0)" fill-opacity="1.000000" fill-rule="nonzero"/>
	<path id="Vector" d="M0 16C0 18.1 0.41 20.18 1.21 22.12C2.02 24.06 3.2 25.82 4.69 27.31C6.18 28.79 7.94 29.97 9.89 30.78C11.83 31.58 13.91 32 16.02 32C18.12 32 20.2 31.58 22.15 30.78C24.09 29.97 25.86 28.79 27.35 27.31C28.83 25.82 30.01 24.06 30.82 22.12C31.62 20.18 32.04 18.1 32.04 16L24.03 16C24.03 17.05 23.82 18.09 23.42 19.06C23.02 20.03 22.43 20.91 21.68 21.65C20.94 22.39 20.05 22.98 19.08 23.39C18.11 23.79 17.07 24 16.02 24C14.96 24 13.92 23.79 12.95 23.39C11.98 22.98 11.1 22.39 10.35 21.65C9.61 20.91 9.02 20.03 8.62 19.06C8.21 18.09 8.01 17.05 8.01 16L0 16Z" fill="url(#paint_linear_122_573_0)" fill-opacity="1.000000" fill-rule="nonzero"/>
</svg>
