<svg width="16.000000" height="15.250000" viewBox="0 0 16 15.25" fill="none" xmlns="http://www.w3.org/2000/svg" xmlns:xlink="http://www.w3.org/1999/xlink">
	<desc>
			Created with Pixso.
	</desc>
	<defs/>
	<path id="Vector" d="M3.5 5.75L6.5 5.75" stroke="#b8b7be" stroke-opacity="1.000000" stroke-width="1.000000" stroke-linejoin="round" stroke-linecap="round"/>
	<path id="Vector" d="M12.67 6.5C11.33 6.5 10.25 7.5 10.25 8.75C10.25 9.99 11.33 11 12.67 11L14.62 11C14.68 11 14.71 11 14.74 10.99C15.14 10.97 15.47 10.67 15.49 10.29C15.5 10.27 15.5 10.24 15.5 10.18L15.5 7.31C15.5 7.25 15.5 7.22 15.49 7.2C15.47 6.82 15.14 6.52 14.74 6.5C14.71 6.5 14.68 6.5 14.62 6.5L12.67 6.5Z" stroke="#b8b7be" stroke-opacity="1.000000" stroke-width="1.000000"/>
	<path id="Vector" d="M14.72 6.5C14.66 5.09 14.47 4.23 13.87 3.62C12.99 2.75 11.57 2.75 8.75 2.75L6.5 2.75C3.67 2.75 2.25 2.75 1.37 3.62C0.5 4.5 0.5 5.92 0.5 8.75C0.5 11.57 0.5 12.99 1.37 13.87C2.25 14.75 3.67 14.75 6.5 14.75L8.75 14.75C11.57 14.75 12.99 14.75 13.87 13.87C14.47 13.26 14.66 12.4 14.72 11" stroke="#b8b7be" stroke-opacity="1.000000" stroke-width="1.000000"/>
	<path id="Vector" d="M3.5 2.75L6.3 0.89C6.69 0.63 7.15 0.5 7.62 0.5C8.09 0.5 8.55 0.63 8.94 0.89L11.75 2.75" stroke="#b8b7be" stroke-opacity="1.000000" stroke-width="1.000000" stroke-linecap="round"/>
	<path id="Vector" d="" stroke="#b8b7be" stroke-opacity="1.000000" stroke-width="1.000000" stroke-linejoin="round"/>
</svg>
