<svg width="22.000000" height="22.000000" viewBox="0 0 22 22" fill="none" xmlns="http://www.w3.org/2000/svg" xmlns:xlink="http://www.w3.org/1999/xlink">
	<desc>
			Created with Pixso.
	</desc>
	<defs>
		<clipPath id="clip122_535">
			<rect id="solar:wallet-money-linear" rx="0.000000" width="21.000000" height="21.000000" transform="translate(0.500000 0.500000)" fill="white" fill-opacity="0"/>
		</clipPath>
	</defs>
	<rect id="solar:wallet-money-linear" rx="0.000000" width="21.000000" height="21.000000" transform="translate(0.500000 0.500000)" fill="#FFFFFF" fill-opacity="0"/>
	<g clip-path="url(#clip122_535)">
		<path id="Vector" d="M5.5 9.16L9.16 9.16" stroke="#FFFFFF" stroke-opacity="1.000000" stroke-width="2.000000" stroke-linejoin="round" stroke-linecap="round"/>
		<path id="Vector" d="M16.71 10.08C15.07 10.08 13.75 11.31 13.75 12.83C13.75 14.35 15.07 15.58 16.71 15.58L19.09 15.58C19.17 15.58 19.21 15.58 19.24 15.58C19.73 15.55 20.13 15.18 20.16 14.72C20.16 14.69 20.16 14.66 20.16 14.58L20.16 11.07C20.16 11 20.16 10.96 20.16 10.94C20.13 10.48 19.73 10.11 19.24 10.08C19.21 10.08 19.17 10.08 19.09 10.08L16.71 10.08Z" stroke="#FFFFFF" stroke-opacity="1.000000" stroke-width="2.000000"/>
		<path id="Vector" d="M19.21 10.08C19.14 8.36 18.91 7.31 18.17 6.57C17.1 5.5 15.37 5.5 11.91 5.5L9.16 5.5C5.7 5.5 3.98 5.5 2.9 6.57C1.83 7.64 1.83 9.37 1.83 12.83C1.83 16.29 1.83 18.01 2.9 19.09C3.98 20.16 5.7 20.16 9.16 20.16L11.91 20.16C15.37 20.16 17.1 20.16 18.17 19.09C18.91 18.35 19.14 17.29 19.21 15.58" stroke="#FFFFFF" stroke-opacity="1.000000" stroke-width="2.000000"/>
		<path id="Vector" d="M5.5 5.5L8.92 3.22C9.4 2.91 9.96 2.75 10.54 2.75C11.11 2.75 11.67 2.91 12.15 3.22L15.58 5.5" stroke="#FFFFFF" stroke-opacity="1.000000" stroke-width="2.000000" stroke-linecap="round"/>
		<path id="Vector" d="M16.49 12.83L16.5 12.83" stroke="#FFFFFF" stroke-opacity="1.000000" stroke-width="2.000000" stroke-linejoin="round" stroke-linecap="round"/>
	</g>
</svg>
